# xmcd
#
# Track frame offsets: 
#        150
#        22216
#        41577
#        60926
#        79531
#        104943
#        120260
#        141407
#        160613
#        181647
#        201209
#        219255
#        240902
#        258056
#        274744
#        298927
#        317961
#
# Disc length: 4659 seconds
#
# Revision: 0
# Processed by: cddbd v1.5.2PL0 Copyright (c) Steve Scherf et al.
# Submitted via: ExactAudioCopy v0.99pb4
#
DISCID=ec123111
DTITLE=Michael Jackson - KING OF POP
DYEAR=1900
DGENRE=Pop
TTITLE0=Billi Jean - Michael Jackson
TTITLE1=Beat it - Michael Jackson
TTITLE2=Smooth Criminal - Michael Jackson
TTITLE3=Bad - Michael Jackson
TTITLE4=Jam - Michael Jackson
TTITLE5=Rock With You - Michael Jackson
TTITLE6=Dirty Diana - Michael Jackson
TTITLE7=Black or White - Michael Jackson
TTITLE8=Scream - Michael Jackson
TTITLE9=Wanna Be Startin Somethin - Michael Jackson
TTITLE10=Don't Stop Till You Get Enough - Michael Jackson
TTITLE11=In The Closet - Michael Jackson
TTITLE12=Liberian Girl - Michael Jackson
TTITLE13=The Girl is Mine - Michael Jackson
TTITLE14=Stranger in Moscow - Michael Jackson
TTITLE15=Blood On The Dance Floor - Michael Jackson
TTITLE16=Dangerous - Michael Jackson
EXTD=
EXTT0=
EXTT1=
EXTT2=
EXTT3=
EXTT4=
EXTT5=
EXTT6=
EXTT7=
EXTT8=
EXTT9=
EXTT10=
EXTT11=
EXTT12=
EXTT13=
EXTT14=
EXTT15=
EXTT16=
PLAYORDER=
